<svg xmlns="http://www.w3.org/2000/svg" viewBox="0 0 200 200">
  <circle cx="100" cy="100" r="100" fill="#C8392B"/>
  <g fill="white">
    <path d="M100 100 Q85 60 60 50 Q50 75 65 95 Q80 110 100 100Z"/>
    <path d="M100 100 Q140 85 150 60 Q125 50 105 65 Q90 80 100 100Z"/>
    <path d="M100 100 Q115 140 140 150 Q150 125 135 105 Q120 90 100 100Z"/>
    <path d="M100 100 Q60 115 50 140 Q75 150 95 135 Q110 120 100 100Z"/>
    <path d="M100 100 Q70 75 50 85 Q48 110 65 118 Q85 122 100 100Z"/>
    <path d="M100 100 Q125 70 115 48 Q90 48 78 68 Q72 88 100 100Z"/>
    <path d="M100 100 Q130 125 150 115 Q152 90 135 82 Q115 78 100 100Z"/>
    <path d="M100 100 Q75 130 85 152 Q110 152 122 132 Q128 112 100 100Z"/>
  </g>
</svg>